<svg width="40" height="40" viewBox="0 0 40 40" fill="none" xmlns="http://www.w3.org/2000/svg">
<path d="M16.3667 20H23.6333M37.5 24.1667V15.8333M2.5 24.1667V15.8333M28.6333 30C32.6333 30 33.6333 27.75 33.6333 25V15C33.6333 12.25 32.6333 10 28.6333 10C24.6333 10 23.6333 12.25 23.6333 15V25C23.6333 27.75 24.6333 30 28.6333 30ZM11.3667 30C7.36667 30 6.36667 27.75 6.36667 25V15C6.36667 12.25 7.36667 10 11.3667 10C15.3667 10 16.3667 12.25 16.3667 15V25C16.3667 27.75 15.3667 30 11.3667 30Z" stroke="#233DFF" stroke-width="1.5" stroke-linecap="round" stroke-linejoin="round"/>
</svg>
