<svg width="16" height="16" viewBox="0 0 16 16" fill="none" xmlns="http://www.w3.org/2000/svg">
<path d="M11.4351 9.52596H10.7124L10.4563 9.29214C11.3528 8.30491 11.8925 7.02323 11.8925 5.62898C11.8925 2.52005 9.23041 0 5.94625 0C2.66209 0 0 2.52005 0 5.62898C0 8.73791 2.66209 11.258 5.94625 11.258C7.41909 11.258 8.773 10.747 9.81588 9.89834L10.0629 10.1408V10.825L14.6369 15.1463L16 13.8559L11.4351 9.52596ZM5.94625 9.52596C3.66838 9.52596 1.82962 7.78531 1.82962 5.62898C1.82962 3.47265 3.66838 1.73199 5.94625 1.73199C8.22412 1.73199 10.0629 3.47265 10.0629 5.62898C10.0629 7.78531 8.22412 9.52596 5.94625 9.52596Z" fill="#BEBEBE"/>
</svg>
