<svg width="47" height="43" viewBox="0 0 47 43" fill="none" xmlns="http://www.w3.org/2000/svg">
<g clip-path="url(#clip0_3_591)">
<path d="M45.8523 8.28596L40.2038 6.21766L37.944 1.04906L34.9868 3.75376C31.5097 1.86606 27.5589 0.859863 23.5 0.859863C11.061 0.859863 0.940002 10.1195 0.940002 21.4999C0.940002 32.8802 11.061 42.1399 23.5 42.1399C35.939 42.1399 46.06 32.8802 46.06 21.4999C46.06 17.7864 44.9602 14.1718 42.8969 10.9907L45.8523 8.28596ZM38.7562 7.54206L42.5068 8.91462L40.1925 11.0311L36.4438 9.65766L34.9436 6.22712L37.2569 4.1098L38.7562 7.54206ZM44.18 21.4999C44.18 31.9325 34.9031 40.4199 23.5 40.4199C12.0969 40.4199 2.82 31.9325 2.82 21.4999C2.82 11.0672 12.0969 2.57986 23.5 2.57986C27.0607 2.57986 30.5359 3.41492 33.621 5.00334L32.7364 5.8126L34.6164 10.1135L33.433 11.1962C30.7812 9.05222 27.3089 7.73986 23.5 7.73986C15.2073 7.73986 8.46 13.9129 8.46 21.4999C8.46 29.0868 15.2073 35.2599 23.5 35.2599C31.7927 35.2599 38.54 29.0868 38.54 21.4999C38.54 18.0151 37.1056 14.8383 34.7631 12.4114L35.9465 11.3286L40.6475 13.0486L41.532 12.2394C43.2673 15.0628 44.18 18.2422 44.18 21.4999ZM29.14 21.4999C29.14 24.3456 26.6105 26.6599 23.5 26.6599C20.3895 26.6599 17.86 24.3456 17.86 21.4999C17.86 18.6541 20.3895 16.3399 23.5 16.3399C24.7164 16.3399 25.8406 16.6976 26.7627 17.2988L23.9813 19.8435C23.8262 19.8065 23.6673 19.7799 23.5 19.7799C22.4622 19.7799 21.62 20.5496 21.62 21.4999C21.62 22.4502 22.4622 23.2199 23.5 23.2199C24.5378 23.2199 25.38 22.4502 25.38 21.4999C25.38 21.3468 25.3509 21.2014 25.3104 21.0595L28.0919 18.5148C28.749 19.3585 29.14 20.387 29.14 21.4999ZM28.1041 16.0715C26.8295 15.1651 25.2352 14.6199 23.5 14.6199C19.3537 14.6199 15.98 17.7064 15.98 21.4999C15.98 25.2933 19.3537 28.3799 23.5 28.3799C27.6463 28.3799 31.02 25.2933 31.02 21.4999C31.02 19.9123 30.424 18.4537 29.4333 17.2876L33.4349 13.6266C35.438 15.7404 36.66 18.489 36.66 21.4999C36.66 28.1391 30.7568 33.5399 23.5 33.5399C16.2432 33.5399 10.34 28.1391 10.34 21.4999C10.34 14.8607 16.2432 9.45986 23.5 9.45986C26.79 9.45986 29.7952 10.5779 32.1048 12.4114L28.1041 16.0715Z" fill="#FD6B22"/>
</g>
<defs>
<clipPath id="clip0_3_591">
<rect width="47" height="43" fill="white"/>
</clipPath>
</defs>
</svg>
