<svg width="36" height="32" viewBox="0 0 36 32" fill="none" xmlns="http://www.w3.org/2000/svg">
<mask id="path-1-inside-1_3_386" fill="white">
<path d="M8.83836 0.920923C8.1103 -0.0918116 6.68746 -0.332121 5.77341 0.516536C4.07064 2.0975 2.6835 3.99718 1.6949 6.11552C0.386875 8.91834 -0.179604 12.0101 0.04973 15.0946C0.279064 18.1791 1.29653 21.153 3.00466 23.7316C4.7128 26.3102 7.0544 28.407 9.80517 29.8212C12.556 31.2354 15.6238 31.9197 18.7148 31.8084C21.8058 31.6971 24.8165 30.7941 27.4585 29.1858C30.1004 27.5774 32.2852 25.3177 33.8035 22.623C34.9511 20.5864 35.6889 18.3528 35.9838 16.0481C36.1421 14.8109 35.1187 13.7936 33.8715 13.7908C32.6242 13.788 31.6299 14.8037 31.4202 16.0332C31.1591 17.5636 30.636 19.0434 29.8684 20.4058C28.7297 22.4267 27.0912 24.1214 25.1098 25.3276C23.1284 26.5338 20.8705 27.2111 18.5523 27.2945C16.2341 27.378 13.9334 26.8648 11.8704 25.8042C9.80738 24.7436 8.05125 23.171 6.7702 21.2372C5.48915 19.3033 4.72609 17.073 4.55409 14.7597C4.3821 12.4464 4.80694 10.1277 5.78792 8.02566C6.4492 6.60868 7.34827 5.32215 8.44099 4.21932C9.31888 3.33331 9.56642 1.93366 8.83836 0.920923Z"/>
</mask>
<path d="M1.6949 6.11552L5.83922 8.0496L1.6949 6.11552ZM5.78792 8.02566L9.93224 9.95974L5.78792 8.02566ZM8.44099 4.21932L11.6897 7.43828L8.44099 4.21932ZM31.4202 16.0332L35.9285 16.8023L31.4202 16.0332ZM35.9838 16.0481L40.5202 16.6286L35.9838 16.0481ZM5.77341 0.516536L8.8852 3.86807L5.77341 0.516536ZM2.66163 -2.835C0.527798 -0.853814 -1.21053 1.5268 -2.44941 4.18144L5.83922 8.0496C6.57753 6.46757 7.61349 5.04881 8.8852 3.86807L2.66163 -2.835ZM-2.44941 4.18144C-4.08859 7.69384 -4.79848 11.5683 -4.51108 15.4337L4.61054 14.7555C4.43927 12.4519 4.86234 10.1429 5.83922 8.0496L-2.44941 4.18144ZM-4.51108 15.4337C-4.22369 19.2991 -2.94865 23.0259 -0.808067 26.2573L6.81739 21.2059C5.5417 19.2802 4.78182 17.0591 4.61054 14.7555L-4.51108 15.4337ZM-0.808067 26.2573C1.33251 29.4887 4.26692 32.1163 7.71409 33.8886L11.8963 25.7538C9.84188 24.6977 8.09309 23.1317 6.81739 21.2059L-0.808067 26.2573ZM7.71409 33.8886C11.1613 35.6608 15.0057 36.5183 18.8793 36.3788L18.5503 27.2379C16.2418 27.321 13.9506 26.81 11.8963 25.7538L7.71409 33.8886ZM18.8793 36.3788C22.7528 36.2394 26.5257 35.1077 29.8366 33.0923L25.0804 25.2793C23.1072 26.4804 20.8587 27.1549 18.5503 27.2379L18.8793 36.3788ZM29.8366 33.0923C33.1474 31.0768 35.8853 28.2449 37.788 24.868L29.8191 20.378C28.6852 22.3905 27.0535 24.0781 25.0804 25.2793L29.8366 33.0923ZM37.788 24.868C39.2261 22.3158 40.1506 19.5168 40.5202 16.6286L31.4474 15.4676C31.2271 17.1889 30.6761 18.857 29.8191 20.378L37.788 24.868ZM26.9119 15.2642C26.739 16.278 26.3924 17.2583 25.884 18.1607L33.8529 22.6508C34.8796 20.8286 35.5793 18.8492 35.9285 16.8023L26.9119 15.2642ZM25.884 18.1607C25.1296 19.4995 24.0442 20.6221 22.7317 21.4211L27.4879 29.2341C30.1382 27.6208 32.3298 25.3539 33.8529 22.6508L25.884 18.1607ZM22.7317 21.4211C21.4191 22.2202 19.9234 22.6688 18.3878 22.7241L18.7168 31.865C21.8175 31.7534 24.8376 30.8475 27.4879 29.2341L22.7317 21.4211ZM18.3878 22.7241C16.8522 22.7793 15.3281 22.4394 13.9615 21.7368L9.77929 29.8715C12.5387 31.2902 15.6161 31.9766 18.7168 31.865L18.3878 22.7241ZM13.9615 21.7368C12.5949 21.0342 11.4315 19.9925 10.5829 18.7115L2.95747 23.7629C4.67096 26.3495 7.0199 28.4529 9.77929 29.8715L13.9615 21.7368ZM10.5829 18.7115C9.73432 17.4304 9.22884 15.953 9.11491 14.4206L-0.00672197 15.0988C0.223331 18.1929 1.24398 21.1762 2.95747 23.7629L10.5829 18.7115ZM9.11491 14.4206C9.00097 12.8882 9.2824 11.3522 9.93224 9.95974L1.64361 6.09158C0.331477 8.90319 -0.236775 12.0046 -0.00672197 15.0988L9.11491 14.4206ZM9.93224 9.95974C10.3703 9.0211 10.9658 8.16886 11.6897 7.43828L5.19225 1.00035C3.7307 2.47543 2.52812 4.19625 1.64361 6.09158L9.93224 9.95974ZM11.6897 7.43828C13.8042 5.30424 14.8428 1.4382 12.5518 -1.74866L5.12496 3.59051C4.73159 3.04332 4.65007 2.43951 4.71099 1.99567C4.76816 1.57925 4.94952 1.24534 5.19225 1.00035L11.6897 7.43828ZM33.8818 9.21738C29.9569 9.20853 27.4171 12.3028 26.9119 15.2642L35.9285 16.8023C35.8705 17.1422 35.7045 17.484 35.3991 17.7728C35.0736 18.0806 34.5351 18.3657 33.8612 18.3642L33.8818 9.21738ZM40.5202 16.6286C41.0773 12.2752 37.4765 9.22548 33.8818 9.21738L33.8612 18.3642C32.761 18.3617 31.2069 17.3466 31.4474 15.4676L40.5202 16.6286ZM8.8852 3.86807C7.49694 5.15702 5.76717 4.48382 5.12496 3.59051L12.5518 -1.74866C10.4534 -4.66744 5.87798 -5.82127 2.66163 -2.835L8.8852 3.86807Z" fill="#3585FE" mask="url(#path-1-inside-1_3_386)"/>
</svg>
