<svg width="22" height="19" viewBox="0 0 22 19" fill="none" xmlns="http://www.w3.org/2000/svg">
<path d="M16.3381 0.588401C15.0228 0.325343 13.6198 0.676086 12.5676 1.37757C11.6031 1.99137 10.3755 1.99137 9.4986 1.37757C8.35869 0.676086 6.95571 0.325343 5.64043 0.588401C2.39606 1.11452 0.116229 4.53426 0.554657 8.21706C0.993086 11.8999 4.5882 18.4763 7.83257 17.9502C8.271 17.8625 8.70943 17.6871 9.06017 17.4241C10.2001 16.6349 11.7784 16.6349 12.9183 17.4241C13.2691 17.6871 13.7075 17.8625 14.1459 17.9502C17.3903 18.4763 20.9854 11.8999 21.4239 8.21706C21.95 4.53426 19.6701 1.11452 16.3381 0.588401Z" stroke="#5631FA" stroke-miterlimit="10" stroke-linecap="round" stroke-linejoin="round"/>
</svg>
