<svg width="18" height="18" viewBox="0 0 18 18" fill="none" xmlns="http://www.w3.org/2000/svg">
<path d="M16.0312 12.3047C15.967 12.3413 15.8962 12.3649 15.8228 12.3742C15.7494 12.3834 15.6749 12.3781 15.6036 12.3585C15.5323 12.3389 15.4655 12.3054 15.4072 12.26C15.3488 12.2146 15.2999 12.1581 15.2634 12.0938L13.9275 9.75939C13.1508 10.2845 12.2941 10.6801 11.3906 10.9308L11.8034 13.4072C11.8155 13.4801 11.8132 13.5547 11.7966 13.6267C11.7799 13.6987 11.7492 13.7667 11.7062 13.8269C11.6633 13.887 11.6089 13.9381 11.5461 13.9772C11.4834 14.0163 11.4136 14.0427 11.3407 14.0548C11.3107 14.0597 11.2804 14.0623 11.25 14.0625C11.1169 14.0623 10.9882 14.0149 10.8868 13.9288C10.7853 13.8427 10.7177 13.7234 10.6959 13.5921L10.2902 11.1607C9.43466 11.2798 8.56673 11.2798 7.71117 11.1607L7.30546 13.5921C7.28363 13.7236 7.2158 13.8431 7.11407 13.9293C7.01233 14.0154 6.88331 14.0626 6.74999 14.0625C6.7189 14.0624 6.68787 14.0598 6.65718 14.0548C6.58427 14.0427 6.51445 14.0163 6.45173 13.9772C6.38901 13.9381 6.33461 13.887 6.29165 13.8269C6.24868 13.7667 6.21799 13.6987 6.20132 13.6267C6.18466 13.5547 6.18235 13.4801 6.19453 13.4072L6.60937 10.9308C5.7063 10.6794 4.85001 10.283 4.0739 9.75728L2.74218 12.0938C2.70525 12.1581 2.656 12.2146 2.59725 12.2599C2.5385 12.3052 2.47139 12.3385 2.39977 12.3579C2.32814 12.3773 2.2534 12.3824 2.17981 12.3729C2.10621 12.3634 2.03521 12.3395 1.97085 12.3026C1.9065 12.2657 1.85004 12.2164 1.80472 12.1577C1.75939 12.0989 1.72608 12.0318 1.70669 11.9602C1.6873 11.8886 1.68221 11.8138 1.6917 11.7402C1.7012 11.6666 1.72509 11.5956 1.76203 11.5313L3.16828 9.07032C2.67433 8.64358 2.22012 8.1729 1.81124 7.66407C1.76025 7.60714 1.7214 7.54041 1.69705 7.46797C1.67271 7.39552 1.66338 7.31887 1.66965 7.24269C1.67591 7.16652 1.69763 7.09242 1.73349 7.02493C1.76934 6.95743 1.81857 6.89794 1.87818 6.8501C1.93778 6.80227 2.00652 6.76708 2.08017 6.74668C2.15383 6.72629 2.23088 6.72112 2.3066 6.7315C2.38232 6.74187 2.45514 6.76757 2.5206 6.80702C2.58606 6.84647 2.64279 6.89884 2.68734 6.96095C3.85453 8.40517 5.8964 10.125 8.99999 10.125C12.1036 10.125 14.1455 8.40306 15.3127 6.96095C15.3567 6.89757 15.4133 6.84393 15.479 6.80337C15.5446 6.76281 15.6179 6.7362 15.6943 6.72518C15.7707 6.71417 15.8485 6.71899 15.923 6.73934C15.9974 6.7597 16.0669 6.79516 16.127 6.84351C16.1872 6.89186 16.2367 6.95207 16.2726 7.0204C16.3085 7.08873 16.3299 7.16371 16.3356 7.24068C16.3412 7.31764 16.331 7.39495 16.3055 7.46779C16.28 7.54063 16.2398 7.60744 16.1873 7.66407C15.7785 8.1729 15.3243 8.64358 14.8303 9.07032L16.2366 11.5313C16.2743 11.5954 16.2989 11.6664 16.3091 11.7402C16.3192 11.8139 16.3145 11.8889 16.2954 11.9609C16.2763 12.0328 16.2432 12.1002 16.1978 12.1593C16.1525 12.2183 16.0958 12.2677 16.0312 12.3047Z" fill="#0F0F0F"/>
</svg>
