<svg width="22" height="18" viewBox="0 0 22 18" fill="none" xmlns="http://www.w3.org/2000/svg">
<mask id="path-1-inside-1_3_389" fill="white">
<path d="M19.9514 0C21.1472 0 22.1302 0.972927 21.9859 2.16005C21.7424 4.16354 21.1612 6.11676 20.2621 7.93524C19.0421 10.4026 17.2697 12.5554 15.0825 14.2265C12.8954 15.8975 10.3524 17.0418 7.65113 17.5704C5.66027 17.9599 3.62296 18.0073 1.62591 17.7156C0.442607 17.5428 -0.237762 16.3387 0.0765534 15.1849C0.390869 14.0311 1.58221 13.3691 2.77131 13.4962C4.11788 13.64 5.48252 13.582 6.81953 13.3204C8.86739 12.9197 10.7953 12.0522 12.4534 10.7853C14.1115 9.51847 15.4552 7.88636 16.3801 6.01583C16.9839 4.79459 17.3986 3.49319 17.6137 2.15614C17.8037 0.975469 18.7555 0 19.9514 0Z"/>
</mask>
<path d="M20.2621 7.93524L16.1991 5.92632L20.2621 7.93524ZM7.65113 17.5704L6.78075 13.1222L7.65113 17.5704ZM16.3801 6.01583L12.3171 4.00691L16.3801 6.01583ZM17.6137 2.15614L13.1388 1.43611L17.6137 2.15614ZM21.9859 2.16005L17.4865 1.6132L21.9859 2.16005ZM17.4865 1.6132C17.3046 3.1095 16.8706 4.56823 16.1991 5.92632L24.3251 9.94416C25.4519 7.6653 26.1802 5.21759 26.4853 2.7069L17.4865 1.6132ZM16.1991 5.92632C15.288 7.76902 13.9642 9.37684 12.3308 10.6248L17.8343 17.8281C20.5752 15.734 22.7963 13.0362 24.3251 9.94416L16.1991 5.92632ZM12.3308 10.6248C10.6973 11.8728 8.79813 12.7274 6.78075 13.1222L8.5215 22.0185C11.9066 21.3562 15.0934 19.9222 17.8343 17.8281L12.3308 10.6248ZM6.78075 13.1222C5.29392 13.4131 3.77239 13.4485 2.2809 13.2307L0.970926 22.2006C3.47354 22.5661 6.02661 22.5067 8.5215 22.0185L6.78075 13.1222ZM2.28983 18.0031C4.08606 18.1949 5.90641 18.1175 7.68991 17.7685L5.94915 8.87217C5.05863 9.04641 4.14971 9.08508 3.25278 8.98926L2.28983 18.0031ZM7.68991 17.7685C10.4216 17.234 12.9933 16.0769 15.2052 14.387L9.70165 7.18368C8.59724 8.02748 7.31315 8.60527 5.94915 8.87217L7.68991 17.7685ZM15.2052 14.387C17.417 12.6971 19.2094 10.5199 20.4431 8.02475L12.3171 4.00691C11.7011 5.2528 10.8061 6.33988 9.70165 7.18368L15.2052 14.387ZM20.4431 8.02475C21.2486 6.39568 21.8018 4.65968 22.0887 2.87617L13.1388 1.43611C12.9955 2.32669 12.7193 3.19349 12.3171 4.00691L20.4431 8.02475ZM22.0887 2.87617C22.0292 3.24593 21.8512 3.61292 21.5306 3.91811C21.1907 4.2417 20.6377 4.53254 19.9514 4.53254V-4.53254C16.1065 -4.53254 13.6104 -1.49523 13.1388 1.43611L22.0887 2.87617ZM2.2809 13.2307C4.1581 13.5048 4.74868 15.2788 4.44973 16.3762L-4.29663 13.9936C-5.2242 17.3986 -3.27289 21.5808 0.970926 22.2006L2.2809 13.2307ZM4.44973 16.3762C4.26935 17.0384 3.84337 17.4955 3.44182 17.7384C3.0631 17.9675 2.66223 18.0428 2.28983 18.0031L3.25278 8.98926C0.300533 8.67387 -3.28604 10.2838 -4.29663 13.9936L4.44973 16.3762ZM26.4853 2.7069C27.0028 -1.5506 23.4805 -4.53254 19.9514 -4.53254V4.53254C18.814 4.53254 17.2576 3.49645 17.4865 1.6132L26.4853 2.7069Z" fill="#FEC635" mask="url(#path-1-inside-1_3_389)"/>
</svg>
