<svg width="24" height="24" viewBox="0 0 24 24" fill="none" xmlns="http://www.w3.org/2000/svg">
<mask id="path-1-inside-1_3_607" fill="white">
<path d="M23.5527 10.018L23.9973 8.82419L22.728 5.76058L21.5696 5.2319L20.2284 5.67896L19.8934 5.5742C19.4573 5.03822 18.964 4.54609 18.4243 4.10756L18.3196 3.77014L18.7666 2.42775L18.238 1.2693L15.1744 0L13.9818 0.445839L13.3484 1.71148L13.0365 1.87471C12.3446 1.80284 11.6478 1.80163 10.9608 1.87228L10.649 1.71027L10.0168 0.447057L8.8242 0L5.75936 1.2693L5.23069 2.42775L5.67774 3.7677L5.57177 4.10391C5.03579 4.54 4.54244 5.03335 4.10513 5.57298L3.76892 5.67774L2.42775 5.23069L1.2693 5.75936L0 8.82419L0.444621 10.018L1.71027 10.6514L1.8735 10.9632C1.80163 11.6539 1.80163 12.3507 1.87106 13.039L1.70905 13.3508L0.445839 13.983L0.00121805 15.1768L1.27052 18.2404L2.42897 18.7691L3.76892 18.3232L4.10391 18.428C4.54 18.964 5.03335 19.4561 5.57298 19.8946L5.67774 20.2296L5.23069 21.572L5.76058 22.7305L8.8242 23.9998L10.018 23.5539L10.6502 22.2895L10.962 22.1263C11.6539 22.1981 12.3507 22.1981 13.039 22.1275L13.3496 22.2907L13.9818 23.5539L15.1744 23.9985L18.238 22.7292L18.7666 21.5708L18.3208 20.2308L18.4256 19.8959C18.9628 19.4585 19.4549 18.9652 19.8922 18.4268L20.2272 18.322L21.5696 18.7691L22.728 18.2404L23.9973 15.1756L23.5527 13.9818L22.2871 13.3484L22.1238 13.0377C22.1957 12.3471 22.1957 11.6503 22.1263 10.9608L22.2883 10.649L23.5527 10.018ZM21.4587 9.8048L20.9678 10.7452L20.9885 10.9182C21.0738 11.632 21.0738 12.358 20.9861 13.0755L20.9654 13.2497L21.4575 14.1913L22.6513 14.7882L22.7865 15.1512L21.8558 17.3962L21.5038 17.557L20.2369 17.1356L19.2234 17.4535L19.115 17.5911C18.6704 18.16 18.1564 18.6741 17.5911 19.1187L17.4535 19.2259L17.1356 20.2394L17.557 21.505L17.3962 21.8571L15.1512 22.7877L14.7882 22.6525L14.1913 21.4599L13.2509 20.9678L13.0779 20.9885C12.3653 21.0738 11.6393 21.0738 10.9194 20.9861L10.7464 20.9654L9.8048 21.4575L9.20791 22.6525L8.8449 22.7877L6.59987 21.8583L6.43908 21.5062L6.86056 20.2394L6.54262 19.2259L6.40497 19.1175C5.83488 18.6704 5.32083 18.1576 4.87743 17.5924L4.77023 17.4547L3.75796 17.1368L2.49231 17.5595L2.14027 17.3987L1.20961 15.1536L1.34482 14.7906L2.37537 14.2741L2.55931 14.1511L3.02951 13.2521L3.0088 13.0792C2.92353 12.3653 2.92353 11.6393 3.01124 10.9218L3.03195 10.7476L2.53982 9.80601L1.34604 9.20913L1.20961 8.84612L2.14027 6.60109L2.49231 6.4403L3.75918 6.86177L4.77267 6.54384L4.88108 6.40619C5.32692 5.8361 5.83976 5.32327 6.40497 4.87864L6.54262 4.77023L6.85934 3.75674L6.43908 2.49353L6.59987 2.14149L8.8449 1.21083L9.20791 1.34604L9.8048 2.5386L10.7452 3.03073L10.9182 3.01002C11.632 2.92475 12.358 2.92475 13.0755 3.01246L13.2497 3.03316L14.1913 2.53982L14.7894 1.34482L15.1524 1.20961L17.3975 2.14027L17.5582 2.49231L17.1368 3.75918L17.4535 4.77267L17.5911 4.88108C18.16 5.32692 18.6741 5.83976 19.1187 6.40619L19.2259 6.54384L20.2394 6.86177L21.505 6.4403L21.8571 6.60109L22.7877 8.84612L22.6525 9.20913L21.4587 9.8048Z"/>
</mask>
<path d="M23.5527 10.018L23.9973 8.82419L22.728 5.76058L21.5696 5.2319L20.2284 5.67896L19.8934 5.5742C19.4573 5.03822 18.964 4.54609 18.4243 4.10756L18.3196 3.77014L18.7666 2.42775L18.238 1.2693L15.1744 0L13.9818 0.445839L13.3484 1.71148L13.0365 1.87471C12.3446 1.80284 11.6478 1.80163 10.9608 1.87228L10.649 1.71027L10.0168 0.447057L8.8242 0L5.75936 1.2693L5.23069 2.42775L5.67774 3.7677L5.57177 4.10391C5.03579 4.54 4.54244 5.03335 4.10513 5.57298L3.76892 5.67774L2.42775 5.23069L1.2693 5.75936L0 8.82419L0.444621 10.018L1.71027 10.6514L1.8735 10.9632C1.80163 11.6539 1.80163 12.3507 1.87106 13.039L1.70905 13.3508L0.445839 13.983L0.00121805 15.1768L1.27052 18.2404L2.42897 18.7691L3.76892 18.3232L4.10391 18.428C4.54 18.964 5.03335 19.4561 5.57298 19.8946L5.67774 20.2296L5.23069 21.572L5.76058 22.7305L8.8242 23.9998L10.018 23.5539L10.6502 22.2895L10.962 22.1263C11.6539 22.1981 12.3507 22.1981 13.039 22.1275L13.3496 22.2907L13.9818 23.5539L15.1744 23.9985L18.238 22.7292L18.7666 21.5708L18.3208 20.2308L18.4256 19.8959C18.9628 19.4585 19.4549 18.9652 19.8922 18.4268L20.2272 18.322L21.5696 18.7691L22.728 18.2404L23.9973 15.1756L23.5527 13.9818L22.2871 13.3484L22.1238 13.0377C22.1957 12.3471 22.1957 11.6503 22.1263 10.9608L22.2883 10.649L23.5527 10.018ZM21.4587 9.8048L20.9678 10.7452L20.9885 10.9182C21.0738 11.632 21.0738 12.358 20.9861 13.0755L20.9654 13.2497L21.4575 14.1913L22.6513 14.7882L22.7865 15.1512L21.8558 17.3962L21.5038 17.557L20.2369 17.1356L19.2234 17.4535L19.115 17.5911C18.6704 18.16 18.1564 18.6741 17.5911 19.1187L17.4535 19.2259L17.1356 20.2394L17.557 21.505L17.3962 21.8571L15.1512 22.7877L14.7882 22.6525L14.1913 21.4599L13.2509 20.9678L13.0779 20.9885C12.3653 21.0738 11.6393 21.0738 10.9194 20.9861L10.7464 20.9654L9.8048 21.4575L9.20791 22.6525L8.8449 22.7877L6.59987 21.8583L6.43908 21.5062L6.86056 20.2394L6.54262 19.2259L6.40497 19.1175C5.83488 18.6704 5.32083 18.1576 4.87743 17.5924L4.77023 17.4547L3.75796 17.1368L2.49231 17.5595L2.14027 17.3987L1.20961 15.1536L1.34482 14.7906L2.37537 14.2741L2.55931 14.1511L3.02951 13.2521L3.0088 13.0792C2.92353 12.3653 2.92353 11.6393 3.01124 10.9218L3.03195 10.7476L2.53982 9.80601L1.34604 9.20913L1.20961 8.84612L2.14027 6.60109L2.49231 6.4403L3.75918 6.86177L4.77267 6.54384L4.88108 6.40619C5.32692 5.8361 5.83976 5.32327 6.40497 4.87864L6.54262 4.77023L6.85934 3.75674L6.43908 2.49353L6.59987 2.14149L8.8449 1.21083L9.20791 1.34604L9.8048 2.5386L10.7452 3.03073L10.9182 3.01002C11.632 2.92475 12.358 2.92475 13.0755 3.01246L13.2497 3.03316L14.1913 2.53982L14.7894 1.34482L15.1524 1.20961L17.3975 2.14027L17.5582 2.49231L17.1368 3.75918L17.4535 4.77267L17.5911 4.88108C18.16 5.32692 18.6741 5.83976 19.1187 6.40619L19.2259 6.54384L20.2394 6.86177L21.505 6.4403L21.8571 6.60109L22.7877 8.84612L22.6525 9.20913L21.4587 9.8048Z" fill="#20B9FD" stroke="#20B9FD" stroke-width="4" mask="url(#path-1-inside-1_3_607)"/>
<mask id="path-2-inside-2_3_607" fill="white">
<path d="M11.9914 5.75341C8.57574 5.75341 5.79717 8.52712 5.79717 11.9379C5.79717 15.3487 8.57574 18.1224 11.9914 18.1224C15.4071 18.1224 18.1856 15.3487 18.1856 11.9379C18.1856 8.52712 15.4071 5.75341 11.9914 5.75341ZM11.9914 16.9968C9.19699 16.9968 6.92395 14.7274 6.92395 11.9379C6.92395 9.14837 9.19699 6.87897 11.9914 6.87897C14.7858 6.87897 17.0589 9.14837 17.0589 11.9379C17.0589 14.7274 14.7858 16.9968 11.9914 16.9968Z"/>
</mask>
<path d="M11.9914 5.75341C8.57574 5.75341 5.79717 8.52712 5.79717 11.9379C5.79717 15.3487 8.57574 18.1224 11.9914 18.1224C15.4071 18.1224 18.1856 15.3487 18.1856 11.9379C18.1856 8.52712 15.4071 5.75341 11.9914 5.75341ZM11.9914 16.9968C9.19699 16.9968 6.92395 14.7274 6.92395 11.9379C6.92395 9.14837 9.19699 6.87897 11.9914 6.87897C14.7858 6.87897 17.0589 9.14837 17.0589 11.9379C17.0589 14.7274 14.7858 16.9968 11.9914 16.9968Z" fill="#20B9FD"/>
<path d="M11.9914 3.72832C7.46043 3.72832 3.77208 7.40558 3.77208 11.9379H7.82226C7.82226 9.64865 9.69106 7.77851 11.9914 7.77851V3.72832ZM3.77208 11.9379C3.77208 16.4702 7.46043 20.1475 11.9914 20.1475V16.0973C9.69106 16.0973 7.82226 14.2272 7.82226 11.9379H3.77208ZM11.9914 20.1475C16.5224 20.1475 20.2107 16.4702 20.2107 11.9379H16.1605C16.1605 14.2272 14.2917 16.0973 11.9914 16.0973V20.1475ZM20.2107 11.9379C20.2107 7.40558 16.5224 3.72832 11.9914 3.72832V7.77851C14.2917 7.77851 16.1605 9.64865 16.1605 11.9379H20.2107ZM11.9914 14.9717C10.3122 14.9717 8.94904 13.6058 8.94904 11.9379H4.89886C4.89886 15.849 8.08174 19.0219 11.9914 19.0219V14.9717ZM8.94904 11.9379C8.94904 10.27 10.3122 8.90407 11.9914 8.90407V4.85388C8.08174 4.85388 4.89886 8.02677 4.89886 11.9379H8.94904ZM11.9914 8.90407C13.6706 8.90407 15.0338 10.27 15.0338 11.9379H19.0839C19.0839 8.02677 15.9011 4.85388 11.9914 4.85388V8.90407ZM15.0338 11.9379C15.0338 13.6058 13.6706 14.9717 11.9914 14.9717V19.0219C15.9011 19.0219 19.0839 15.849 19.0839 11.9379H15.0338Z" fill="#20B9FD" mask="url(#path-2-inside-2_3_607)"/>
</svg>
