<svg width="48" height="45" viewBox="0 0 48 45" fill="none" xmlns="http://www.w3.org/2000/svg">
<path d="M35.1875 19.1496C34.8244 18.806 34.2367 18.806 33.8736 19.1496C33.5115 19.4924 33.5115 20.0488 33.8736 20.3925C34.2367 20.7362 34.8244 20.7362 35.1875 20.3925C35.5497 20.0488 35.5497 19.4924 35.1875 19.1496Z" fill="#FFEEEE"/>
<path d="M2.4529 36.402C0.320502 34.3098 0.32021 30.9587 2.45278 28.8672L1.90029 28.2834M2.4529 36.402L2.5897 36.2574C0.473571 34.2531 0.473901 31.0147 2.58952 29.0117C2.58956 29.0116 2.5896 29.0116 2.58964 29.0116L2.66154 28.9435L2.66163 28.9434L6.33066 25.471L6.33072 25.471C6.35475 25.4482 6.37906 25.4259 6.40361 25.4039L6.95465 25.9859M2.4529 36.402L1.90038 36.9856M2.4529 36.402L2.45305 36.4021L1.90038 36.9856M1.90029 28.2834L2.45287 28.8671C2.47637 28.844 2.50014 28.8211 2.52416 28.7984L2.52427 28.7983L6.19331 25.3259L6.19336 25.3258L6.2653 25.2578C6.26534 25.2577 6.26538 25.2577 6.26542 25.2576C7.14422 24.4257 8.34336 24.0902 9.48055 24.2511C9.92738 24.3144 10.3646 24.4542 10.7692 24.6707M1.90029 28.2834L5.64143 24.7428L17.6588 43.2009C15.1243 45.5999 11.0008 45.5993 8.46621 43.201L1.90038 36.9856M1.90029 28.2834C-0.633398 30.6821 -0.63349 34.5858 1.90038 36.9856M10.7692 24.6707L10.7695 24.6727L9.44778 24.4954C8.36018 24.3495 7.23343 24.6609 6.40371 25.4038L6.95465 25.9859M10.7692 24.6707L10.7264 24.3837C10.788 24.5141 10.858 24.6417 10.9365 24.7658C10.8814 24.7326 10.8256 24.7009 10.7692 24.6707ZM6.95465 25.9859C8.04075 24.9577 9.80803 24.9577 10.8942 25.9859L16.3456 41.9577C14.5357 43.6711 11.5899 43.671 9.77924 41.9577L3.21369 35.7427C1.40371 34.0285 1.40371 31.2399 3.21351 29.5266L6.95465 25.9859ZM31.8612 24.7196C31.9171 24.7533 31.9738 24.7855 32.0312 24.8161L32.0263 24.8155L32.0683 25.0961C32.0074 24.9676 31.9384 24.8418 31.8612 24.7196ZM26.6084 29.6918C26.664 29.7254 26.7202 29.7574 26.7772 29.7879L26.7733 29.7874L26.8153 30.0682C26.7545 29.9397 26.6855 29.814 26.6084 29.6918ZM21.3563 34.6643C21.4114 34.6976 21.4673 34.7294 21.5238 34.7596L21.5206 34.7592L21.5626 35.0393C21.5019 34.9114 21.4332 34.7861 21.3563 34.6643ZM16.1886 19.7932C16.1331 19.7597 16.0768 19.7277 16.0199 19.6973L16.0206 19.6973L15.9779 19.4099C16.0397 19.5407 16.1099 19.6687 16.1886 19.7932ZM21.4413 14.8206C21.3859 14.7871 21.3297 14.7551 21.2729 14.7247L21.2764 14.7251L21.2343 14.4441C21.2952 14.5726 21.3642 14.6983 21.4413 14.8206ZM36.2881 5.38614L36.2645 5.39008L36.2527 5.34036C36.2642 5.35575 36.276 5.37102 36.2881 5.38614Z" fill="#FFEEEE" stroke="white" stroke-width="2"/>
<mask id="path-3-inside-1_1_210" fill="white">
<path d="M46.9294 33.2928L42.7918 25.6193C42.6331 25.3251 42.3137 25.1399 41.9648 25.1399C41.6158 25.1399 41.2964 25.3251 41.1377 25.6193L37.0005 33.2924C35.12 36.7751 37.7997 40.9617 41.9648 40.9617C46.1292 40.9617 48.8097 36.7758 46.9294 33.2928ZM41.9648 39.2037C39.1853 39.2037 37.4031 36.4094 38.6544 34.0921L41.9648 27.9523L45.2755 34.0924C46.5252 36.4072 44.7469 39.2037 41.9648 39.2037Z"/>
</mask>
<path d="M46.9294 33.2928L42.7918 25.6193C42.6331 25.3251 42.3137 25.1399 41.9648 25.1399C41.6158 25.1399 41.2964 25.3251 41.1377 25.6193L37.0005 33.2924C35.12 36.7751 37.7997 40.9617 41.9648 40.9617C46.1292 40.9617 48.8097 36.7758 46.9294 33.2928ZM41.9648 39.2037C39.1853 39.2037 37.4031 36.4094 38.6544 34.0921L41.9648 27.9523L45.2755 34.0924C46.5252 36.4072 44.7469 39.2037 41.9648 39.2037Z" fill="#FFEEEE"/>
<path d="M46.9294 33.2928L45.1642 34.2446L45.1647 34.2455L46.9294 33.2928ZM42.7918 25.6193L44.557 24.6676L44.5568 24.6673L42.7918 25.6193ZM41.1377 25.6193L39.3727 24.6673L39.3726 24.6676L41.1377 25.6193ZM37.0005 33.2924L38.7651 34.2452L38.7656 34.2442L37.0005 33.2924ZM38.6544 34.0921L40.419 35.0449L40.4195 35.0438L38.6544 34.0921ZM41.9648 27.9523L43.7299 27.0006L41.9648 23.7268L40.1996 27.0006L41.9648 27.9523ZM45.2755 34.0924L43.5103 35.0442L43.5108 35.0451L45.2755 34.0924ZM48.6945 32.341L44.557 24.6676L41.0267 26.5711L45.1642 34.2446L48.6945 32.341ZM44.5568 24.6673C44.0296 23.6898 43.011 23.1345 41.9648 23.1345V27.1453C41.6165 27.1453 41.2367 26.9605 41.0268 26.5714L44.5568 24.6673ZM41.9648 23.1345C40.9186 23.1345 39.9 23.6898 39.3727 24.6673L42.9028 26.5714C42.6929 26.9605 42.3131 27.1453 41.9648 27.1453V23.1345ZM39.3726 24.6676L35.2353 32.3407L38.7656 34.2442L42.9029 26.5711L39.3726 24.6676ZM35.2359 32.3396C32.5485 37.3166 36.4648 42.9671 41.9648 42.9671V38.9563C39.1345 38.9563 37.6915 36.2335 38.7651 34.2452L35.2359 32.3396ZM41.9648 42.9671C47.4635 42.9671 51.3814 37.3178 48.694 32.3401L45.1647 34.2455C46.2381 36.2337 44.7948 38.9563 41.9648 38.9563V42.9671ZM41.9648 37.1983C40.5224 37.1983 39.9736 35.8697 40.419 35.0449L36.8898 33.1392C34.8326 36.9491 37.8482 41.2091 41.9648 41.2091V37.1983ZM40.4195 35.0438L43.73 28.9041L40.1996 27.0006L36.8892 33.1403L40.4195 35.0438ZM40.1996 28.9041L43.5103 35.0442L47.0406 33.1406L43.7299 27.0006L40.1996 28.9041ZM43.5108 35.0451C43.9559 35.8695 43.4074 37.1983 41.9648 37.1983V41.2091C46.0865 41.2091 49.0945 36.9449 47.0401 33.1397L43.5108 35.0451Z" fill="white" mask="url(#path-3-inside-1_1_210)"/>
<path d="M32.5609 16.6629L28.0779 12.4191C27.7152 12.0759 27.1275 12.0759 26.7647 12.4191C26.4021 12.7624 26.4021 13.319 26.7647 13.6622L31.2476 17.906C31.6103 18.2492 32.1981 18.2492 32.5609 17.906C32.9234 17.5626 32.9234 17.0061 32.5609 16.6629Z" fill="#FFEEEE"/>
</svg>
