<svg width="44" height="40" viewBox="0 0 44 40" fill="none" xmlns="http://www.w3.org/2000/svg">
<path d="M43.0555 7.66634L33.1527 0L30.3757 3.03873L40.2784 10.7051L43.0555 7.66634ZM12.6583 3.03873L9.90277 0L0 7.64647L2.77708 10.6852L12.6583 3.03873ZM22.6041 12.1946H19.375V24.1112L29.6007 29.7716L31.2152 27.3287L22.6041 22.6216V12.1946ZM21.5278 4.25025C10.8285 4.25025 2.15278 12.2542 2.15278 22.1251C2.15278 31.996 10.8069 40 21.5278 40C32.2271 40 40.9027 31.996 40.9027 22.1251C40.9027 12.2542 32.2271 4.25025 21.5278 4.25025ZM21.5278 36.0278C13.1965 36.0278 6.45833 29.8113 6.45833 22.1251C6.45833 14.4389 13.1965 8.22244 21.5278 8.22244C29.859 8.22244 36.5972 14.4389 36.5972 22.1251C36.5972 29.8113 29.859 36.0278 21.5278 36.0278Z" fill="#233DFF"/>
</svg>
