<svg width="36" height="36" viewBox="0 0 36 36" fill="none" xmlns="http://www.w3.org/2000/svg">
<mask id="path-1-inside-1_3_388" fill="white">
<path d="M33.7768 18C35.0046 18 36.0141 18.999 35.8628 20.2175C35.4556 23.498 34.1503 26.6186 32.071 29.2251C29.5274 32.4136 25.9762 34.6437 21.9994 35.55C18.0225 36.4562 13.8558 35.985 10.1818 34.2134C6.50784 32.4418 3.54449 29.4749 1.77727 25.7988C0.0100393 22.1227 -0.456274 17.9554 0.454726 13.9797C1.36573 10.0039 3.60002 6.45542 6.79155 3.91558C9.98308 1.37574 13.9426 -0.00484183 18.0214 1.27491e-05C21.3557 0.00398121 24.6081 0.933582 27.4244 2.66441C28.4705 3.30726 28.6203 4.71962 27.8535 5.6785C27.0866 6.63737 25.6942 6.77443 24.6229 6.17449C22.6149 5.04988 20.342 4.44896 18.0161 4.44619C14.9448 4.44253 11.9633 5.4821 9.56015 7.39457C7.15696 9.30704 5.47456 11.979 4.78859 14.9727C4.10261 17.9664 4.45374 21.1044 5.78445 23.8724C7.11515 26.6405 9.34652 28.8745 12.113 30.2085C14.8794 31.5425 18.017 31.8973 21.0115 31.2149C24.006 30.5325 26.68 28.8533 28.5953 26.4524C30.0458 24.6342 30.996 22.4838 31.3719 20.2132C31.5723 19.0019 32.5491 18 33.7768 18Z"/>
</mask>
<path d="M31.3719 20.2132L26.8761 19.469L31.3719 20.2132ZM24.6229 6.17449L22.3962 10.1504L24.6229 6.17449ZM27.4244 2.66441L25.0385 6.54681L27.4244 2.66441ZM35.8628 20.2175L31.3406 19.6561L35.8628 20.2175ZM31.3406 19.6561C31.0365 22.1061 30.0616 24.4368 28.5087 26.3833L35.6333 32.067C38.2391 28.8005 39.8748 24.8899 40.3851 20.7788L31.3406 19.6561ZM28.5087 26.3833C26.609 28.7646 23.9569 30.4301 20.9869 31.1069L23.0119 39.993C27.9955 38.8573 32.4457 36.0627 35.6333 32.067L28.5087 26.3833ZM20.9869 31.1069C18.0168 31.7838 14.9049 31.4318 12.1611 30.1087L8.20253 38.318C12.8066 40.5381 18.0282 41.1287 23.0119 39.993L20.9869 31.1069ZM12.1611 30.1087C9.41724 28.7856 7.20411 26.5698 5.88428 23.8244L-2.32975 27.7732C-0.115122 32.3799 3.59844 36.0979 8.20253 38.318L12.1611 30.1087ZM5.88428 23.8244C4.56445 21.079 4.21619 17.9667 4.89656 14.9975L-3.98711 12.9619C-5.12874 17.9442 -4.54437 23.1665 -2.32975 27.7732L5.88428 23.8244ZM4.89656 14.9975C5.57693 12.0282 7.24558 9.37809 9.62912 7.48125L3.95397 0.349918C-0.0455401 3.53275 -2.84548 7.97959 -3.98711 12.9619L4.89656 14.9975ZM9.62912 7.48125C12.0127 5.5844 14.9698 4.55333 18.016 4.55696L18.0268 -4.55693C12.9154 -4.56302 7.95348 -2.83292 3.95397 0.349918L9.62912 7.48125ZM18.016 4.55696C20.5061 4.55992 22.9351 5.25415 25.0385 6.54681L29.8104 -1.21799C26.281 -3.38699 22.2053 -4.55196 18.0268 -4.55693L18.016 4.55696ZM26.8497 2.19861C24.1666 0.695952 21.1295 -0.107059 18.0215 -0.110759L18.0107 9.00314C19.5545 9.00497 21.0632 9.40381 22.3962 10.1504L26.8497 2.19861ZM18.0215 -0.110759C13.9176 -0.115643 9.93374 1.27344 6.72257 3.82891L12.3977 10.9602C13.9929 9.69076 15.972 9.00071 18.0107 9.00314L18.0215 -0.110759ZM6.72257 3.82891C3.5114 6.38437 1.26336 9.9547 0.346753 13.9549L9.23042 15.9905C9.68576 14.0033 10.8025 12.2297 12.3977 10.9602L6.72257 3.82891ZM0.346753 13.9549C-0.569853 17.9552 -0.10067 22.1481 1.67743 25.8468L9.89146 21.898C9.00816 20.0606 8.77508 17.9777 9.23042 15.9905L0.346753 13.9549ZM1.67743 25.8468C3.45553 29.5455 6.43712 32.5306 10.1337 34.3131L14.0923 26.1038C12.2559 25.2183 10.7748 23.7354 9.89146 21.898L1.67743 25.8468ZM10.1337 34.3131C13.8303 36.0956 18.0227 36.5698 22.024 35.658L19.999 26.7719C18.0112 27.2249 15.9286 26.9893 14.0923 26.1038L10.1337 34.3131ZM22.024 35.658C26.0253 34.7461 29.5983 32.5023 32.1576 29.2942L25.033 23.6106C23.7616 25.2043 21.9867 26.3189 19.999 26.7719L22.024 35.658ZM32.1576 29.2942C34.0958 26.8647 35.3655 23.9912 35.8676 20.9573L26.8761 19.469C26.6266 20.9763 25.9958 22.4038 25.033 23.6106L32.1576 29.2942ZM35.8676 20.9573C35.8095 21.3083 35.6395 21.6596 35.329 21.9549C34.9986 22.269 34.4552 22.5569 33.7768 22.5569V13.443C29.8827 13.443 27.3644 16.519 26.8761 19.469L35.8676 20.9573ZM24.2946 2.83244C24.7183 2.30263 25.2825 2.05807 25.7341 1.99623C26.1587 1.93809 26.5392 2.02475 26.8497 2.19861L22.3962 10.1504C25.0052 11.6115 28.9802 11.5658 31.4124 8.52455L24.2946 2.83244ZM25.0385 6.54681C23.4242 5.55472 23.5989 3.70233 24.2946 2.83244L31.4124 8.52455C33.6416 5.73692 33.5168 1.0598 29.8104 -1.21799L25.0385 6.54681ZM40.3851 20.7788C40.921 16.4616 37.3462 13.443 33.7768 13.443V22.5569C32.663 22.5569 31.1072 21.5365 31.3406 19.6561L40.3851 20.7788Z" fill="#7876F5" mask="url(#path-1-inside-1_3_388)"/>
</svg>
